<?xml version="1.0" encoding="utf-8"?>
<svg viewBox="0 0 500 500" xmlns="http://www.w3.org/2000/svg">
  <defs/>
  <mask id="path-4-inside-1_2397_31386" fill="white"/>
  <g transform="matrix(1, 0, 0, 1, 39.365456, 225.029373)">
    <path fill-rule="evenodd" clip-rule="evenodd" d="M 6.237 -194.269 C -8.466 -194.269 -20.386 -182.349 -20.386 -167.646 L -20.386 -34.535 C -20.386 -19.831 -8.466 -7.912 6.237 -7.912 L 37.61 -7.912 L 80.466 42.916 L 123.306 -7.912 L 414.444 -7.912 C 429.147 -7.912 441.067 -19.831 441.067 -34.535 L 441.067 -167.646 C 441.067 -182.349 429.147 -194.269 414.444 -194.269 L 6.237 -194.269 Z" style="fill: none; stroke: rgb(85, 88, 97); stroke-width: 22px;"/>
    <path d="M 113.887 -60.269 L 76.246 -60.269 L 76.246 -82.85 L 98.827 -82.85 C 103.347 -82.85 106.35 -85.855 106.35 -90.373 C 106.35 -94.892 103.347 -97.896 98.827 -97.896 L 76.246 -97.896 L 76.246 -120.477 C 76.246 -128.75 83.031 -135.522 91.306 -135.522 C 99.578 -135.522 106.35 -128.75 106.35 -120.477 C 106.35 -115.957 109.368 -112.954 113.887 -112.954 C 118.405 -112.954 121.408 -115.957 121.408 -120.477 C 121.408 -137.037 107.866 -150.58 91.306 -150.58 C 74.746 -150.58 61.202 -137.037 61.202 -120.477 L 61.202 -97.896 L 46.157 -97.896 C 41.639 -97.896 38.621 -94.892 38.621 -90.373 C 38.621 -85.855 41.639 -82.85 46.157 -82.85 L 61.202 -82.85 L 61.202 -60.269 L 46.157 -60.269 C 41.639 -60.269 38.621 -57.253 38.621 -52.733 C 38.621 -48.227 41.639 -45.211 46.157 -45.211 L 113.887 -45.211 C 118.405 -45.211 121.408 -48.227 121.408 -52.733 C 121.408 -57.253 118.405 -60.269 113.887 -60.269 Z" style="fill: rgb(255, 34, 0);"/>
    <path d="M 232.402 -60.269 L 194.777 -60.269 L 194.777 -82.85 L 217.358 -82.85 C 221.878 -82.85 224.881 -85.855 224.881 -90.373 C 224.881 -94.892 221.878 -97.896 217.358 -97.896 L 194.777 -97.896 L 194.777 -120.477 C 194.777 -128.75 201.549 -135.522 209.836 -135.522 C 218.109 -135.522 224.881 -128.75 224.881 -120.477 C 224.881 -115.957 227.897 -112.954 232.402 -112.954 C 236.922 -112.954 239.938 -115.957 239.938 -120.477 C 239.938 -137.037 226.381 -150.58 209.836 -150.58 C 193.276 -150.58 179.732 -137.037 179.732 -120.477 L 179.732 -97.896 L 164.673 -97.896 C 160.154 -97.896 157.151 -94.892 157.151 -90.373 C 157.151 -85.855 160.154 -82.85 164.673 -82.85 L 179.732 -82.85 L 179.732 -60.269 L 164.673 -60.269 C 160.154 -60.269 157.151 -57.253 157.151 -52.733 C 157.151 -48.227 160.154 -45.211 164.673 -45.211 L 232.402 -45.211 C 236.922 -45.211 239.938 -48.227 239.938 -52.733 C 239.938 -57.253 236.922 -60.269 232.402 -60.269 Z" style="fill: rgb(255, 34, 0);"/>
    <path d="M 364.612 -60.269 L 326.986 -60.269 L 326.986 -82.85 L 349.554 -82.85 C 354.073 -82.85 357.09 -85.855 357.09 -90.373 C 357.09 -94.892 354.073 -97.896 349.554 -97.896 L 326.986 -97.896 L 326.986 -120.477 C 326.986 -128.75 333.758 -135.522 342.031 -135.522 C 350.318 -135.522 357.09 -128.75 357.09 -120.477 C 357.09 -115.957 360.094 -112.954 364.612 -112.954 C 369.132 -112.954 372.135 -115.957 372.135 -120.477 C 372.135 -137.037 358.593 -150.58 342.031 -150.58 C 325.471 -150.58 311.929 -137.037 311.929 -120.477 L 311.929 -97.896 L 296.884 -97.896 C 292.364 -97.896 289.348 -94.892 289.348 -90.373 C 289.348 -85.855 292.364 -82.85 296.884 -82.85 L 311.929 -82.85 L 311.929 -60.269 L 296.884 -60.269 C 292.364 -60.269 289.348 -57.253 289.348 -52.733 C 289.348 -48.227 292.364 -45.211 296.884 -45.211 L 364.612 -45.211 C 369.132 -45.211 372.135 -48.227 372.135 -52.733 C 372.135 -57.253 369.132 -60.269 364.612 -60.269 Z" style="fill: rgb(255, 34, 0);"/>
    <path d="M 37.61 -7.912 L 47.795 -16.487 L 43.809 -21.224 L 37.61 -21.224 L 37.61 -7.912 Z M 80.451 42.916 L 70.281 51.502 L 80.451 63.572 L 90.636 51.502 L 80.451 42.916 Z M 123.293 -7.912 L 123.293 -21.224 L 117.109 -21.224 L 113.122 -16.487 L 123.293 -7.912 Z M -7.073 -167.646 C -7.073 -174.991 -1.121 -180.956 6.237 -180.956 L 6.237 -207.579 C -15.825 -207.579 -33.696 -189.695 -33.696 -167.646 L -7.073 -167.646 Z M -7.073 -34.535 L -7.073 -167.646 L -33.696 -167.646 L -33.696 -34.535 L -7.073 -34.535 Z M 6.237 -21.224 C -1.121 -21.224 -7.073 -27.177 -7.073 -34.535 L -33.696 -34.535 C -33.696 -12.486 -15.825 5.398 6.237 5.398 L 6.237 -21.224 Z M 37.61 -21.224 L 6.237 -21.224 L 6.237 5.398 L 37.61 5.398 L 37.61 -21.224 Z M 90.636 34.341 L 47.795 -16.487 L 27.44 0.661 L 70.281 51.502 L 90.636 34.341 Z M 113.122 -16.487 L 70.281 34.341 L 90.636 51.502 L 133.478 0.661 L 113.122 -16.487 Z M 414.444 -21.224 L 123.293 -21.224 L 123.293 5.398 L 414.444 5.398 L 414.444 -21.224 Z M 427.755 -34.535 C 427.755 -27.177 421.789 -21.224 414.444 -21.224 L 414.444 5.398 C 436.493 5.398 454.377 -12.486 454.377 -34.535 L 427.755 -34.535 Z M 427.755 -167.646 L 427.755 -34.535 L 454.377 -34.535 L 454.377 -167.646 L 427.755 -167.646 Z M 414.444 -180.956 C 421.789 -180.956 427.755 -174.991 427.755 -167.646 L 454.377 -167.646 C 454.377 -189.695 436.493 -207.579 414.444 -207.579 L 414.444 -180.956 Z M 6.237 -180.956 L 414.444 -180.956 L 414.444 -207.579 L 6.237 -207.579 L 6.237 -180.956 Z" fill="#555861" mask="url(#path-4-inside-1_2397_31386)" style=""/>
    <path d="M 135.062 231.565 L 135.062 225.094 C 135.062 215.741 130.052 207.1 121.928 202.457 L 93.968 186.457" stroke="#555861" stroke-width="0.975" stroke-linecap="round" stroke-linejoin="round" style=""/>
    <path d="M 54.498 186.442 L 26.566 202.472 C 18.442 207.113 13.432 215.741 13.432 225.094 L 13.432 231.578" stroke="#555861" stroke-width="0.975" stroke-linecap="round" stroke-linejoin="round" style=""/>
    <path d="M 74.254 192.587 C 55.058 192.587 39.494 177.036 39.494 157.841 L 39.494 140.462 C 39.494 121.267 55.058 105.716 74.254 105.716 C 93.435 105.716 108.999 121.267 108.999 140.462 L 108.999 157.841 C 108.999 177.036 93.435 192.587 74.254 192.587 Z" stroke="#555861" stroke-width="0.975" stroke-linecap="round" stroke-linejoin="round" style=""/>
    <path d="M 74.254 253.408 C 127.034 253.408 169.82 210.622 169.82 157.841 C 169.82 105.061 127.034 62.275 74.254 62.275 C 21.473 62.275 -21.313 105.061 -21.313 157.841 C -21.313 210.622 21.473 253.408 74.254 253.408 Z" stroke="#555861" stroke-width="0.975" stroke-linecap="round" stroke-linejoin="round" style="fill: rgb(85, 88, 97);"/>
    <rect x="225.864" y="78.616" width="208.54" height="31.059" rx="15.53" stroke="#555861" stroke-width="0.975" style="fill: rgb(85, 88, 97);" ry="15.53"/>
    <rect x="225.864" y="140.72" width="208.54" height="31.059" rx="15.53" stroke="#555861" stroke-width="0.975" style="fill: rgb(85, 88, 97);" ry="15.53"/>
    <rect x="225.864" y="202.839" width="208.54" height="31.059" rx="15.53" stroke="#555861" stroke-width="0.975" style="fill: rgb(85, 88, 97);" ry="15.53"/>
  </g>
</svg>