<?xml version="1.0" encoding="utf-8"?>
<svg viewBox="0 0 500 500" xmlns="http://www.w3.org/2000/svg">
  <defs/>
  <g>
    <g transform="matrix(1, 0, 0, 1, -474.735626, -42.009399)">
      <g fill="none" fill-rule="evenodd" transform="matrix(1, 0, 0, 1, 499.964783, 221.300522)">
        <path fill="#344154" d="M 377.067 291.163 L 387.725 291.163 L 387.725 94.674 L 377.067 94.674 L 377.067 291.163 Z M 140.459 291.163 L 151.117 291.163 L 151.117 94.674 L 140.459 94.674 L 140.459 291.163 Z M 275.672 176.369 L 252.513 176.369 C 216.782 176.369 187.707 147.452 187.707 111.902 L 187.707 63.299 L 198.365 63.299 L 198.365 111.902 C 198.365 141.599 222.658 165.766 252.513 165.766 L 275.656 165.766 C 305.51 165.766 329.804 141.599 329.804 111.902 L 329.804 63.299 L 340.462 63.299 L 340.462 111.902 C 340.462 147.452 311.395 176.369 275.656 176.369 M 264.328 54.902 C 220.058 54.902 182.665 10.711 182.665 -41.609 L 182.665 -53.701 L 193.323 -53.701 L 193.323 -41.609 C 193.323 4.953 225.84 44.292 264.336 44.292 C 302.824 44.292 335.341 4.984 335.341 -41.546 L 335.341 -53.386 L 345.999 -53.386 L 345.999 -41.546 C 345.999 11.633 309.37 54.902 264.336 54.902" style=""/>
        <path fill="#344154" d="M 451.428 296.465 C 448.498 296.473 446.111 294.094 446.103 291.163 C 446.103 286.224 442.92 237.598 437.383 157.771 C 436.264 142.245 427.828 128.184 414.657 119.889 L 335.365 70.019 C 315.877 88.199 291.41 97.786 264.336 97.786 C 237.239 97.786 212.764 88.199 193.292 70.019 L 114.008 119.889 C 100.845 128.184 92.4 142.245 91.282 157.771 C 85.752 237.606 82.57 286.224 82.57 291.163 C 82.562 294.102 80.175 296.473 77.237 296.465 C 74.306 296.473 71.912 294.102 71.904 291.163 C 71.904 284.436 76.662 214.518 80.648 157.03 C 82.01 138.141 92.282 121.023 108.304 110.925 L 194.788 56.533 L 197.805 59.573 C 215.687 77.636 238.696 87.183 264.336 87.183 C 289.937 87.183 312.947 77.636 330.867 59.573 L 333.876 56.533 L 420.36 110.925 C 436.39 121.023 446.654 138.149 448.009 157.038 C 452.011 214.51 456.769 284.436 456.769 291.163 C 456.761 294.102 454.374 296.473 451.436 296.465 M 188.03 -58.443 L 188.061 -58.443 L 188.03 -58.443 Z M 193.347 -58.128 C 193.339 -57.915 192.669 -43.973 200.594 -33.898 C 207.234 -25.453 219.003 -22.57 229.212 -26.887 C 238.271 -30.723 251.717 -35.284 264.32 -35.292 L 264.352 -35.292 C 276.948 -35.292 290.394 -30.723 299.461 -26.887 C 309.662 -22.57 321.438 -25.445 328.079 -33.898 C 335.94 -43.902 335.341 -54.363 335.326 -54.465 L 335.318 -54.859 L 335.341 -66.234 C 335.341 -86.053 327.74 -104.8 314.506 -117.672 C 301.099 -130.748 283.092 -138.05 264.352 -137.995 C 245.62 -138.042 227.613 -130.748 214.19 -117.672 C 200.956 -104.8 193.363 -86.053 193.363 -66.226 L 193.347 -58.128 Z M 219.452 -14.291 C 208.841 -14.244 198.798 -19.057 192.197 -27.367 C 182.169 -40.113 182.602 -56.521 182.697 -58.585 L 182.697 -66.226 C 182.697 -88.881 191.464 -110.401 206.746 -125.258 C 222.162 -140.271 242.839 -148.645 264.352 -148.59 C 286.014 -148.59 306.464 -140.303 321.95 -125.25 C 337.232 -110.393 345.999 -88.873 345.999 -66.218 L 345.976 -54.993 C 346.086 -52.905 346.322 -39.876 336.476 -27.36 C 326.866 -15.134 309.93 -10.92 295.294 -17.119 C 287.133 -20.562 275.136 -24.681 264.336 -24.681 C 253.529 -24.681 241.54 -20.562 233.379 -17.119 C 228.975 -15.252 224.241 -14.283 219.452 -14.283 L 219.452 -14.291 Z" style=""/>
        <path d="M 264.352 -96.458 C 283.218 -96.458 301.028 -89.235 314.514 -76.135 C 316.137 -74.552 317.665 -72.882 319.122 -71.149 C 318.027 -84.816 312.427 -97.435 303.328 -106.281 C 292.907 -116.443 278.917 -122.114 264.352 -122.075 C 249.7 -122.075 235.852 -116.467 225.36 -106.281 C 216.27 -97.451 210.677 -84.84 209.582 -71.157 C 211.031 -72.89 212.559 -74.552 214.182 -76.127 C 227.605 -89.204 245.62 -96.498 264.352 -96.451 M 167.108 291.163 L 167.108 246.074 C 268.691 196.498 298.027 266.453 361.076 246.074 L 361.076 291.163 L 167.108 291.163 Z" style="fill: rgb(221, 69, 40);"/>
        <path fill="#344154" d="M 195.04 228.492 C 194.733 228.492 194.426 228.469 194.119 228.421 C 177.199 225.483 160.499 221.355 144.146 216.078 C 140.27 214.817 139.207 209.823 142.247 207.09 C 143.657 205.83 145.635 205.412 147.431 205.995 C 163.256 211.099 179.57 215.133 195.954 217.968 C 199.979 218.701 201.697 223.514 199.05 226.625 C 198.05 227.807 196.584 228.492 195.04 228.5 M 195.04 200.764 C 194.733 200.764 194.426 200.741 194.119 200.686 C 177.191 197.748 160.491 193.628 144.138 188.342 C 140.262 187.074 139.207 182.08 142.247 179.354 C 143.657 178.086 145.642 177.668 147.438 178.259 C 163.311 183.387 179.514 187.389 195.946 190.233 C 199.972 190.965 201.689 195.778 199.042 198.89 C 198.042 200.071 196.584 200.749 195.04 200.764 M 319.343 228.492 C 315.255 228.453 312.742 224.01 314.821 220.489 C 315.601 219.158 316.924 218.236 318.437 217.96 C 334.869 215.109 351.08 211.107 366.945 205.987 C 370.828 204.719 374.625 208.13 373.782 212.123 C 373.388 213.975 372.041 215.479 370.237 216.07 C 353.892 221.355 337.193 225.483 320.264 228.421 C 319.965 228.476 319.658 228.5 319.343 228.5 M 319.343 200.764 C 315.255 200.725 312.742 196.282 314.821 192.761 C 315.601 191.43 316.924 190.508 318.437 190.233 C 334.814 187.397 351.127 183.372 366.945 178.259 C 370.828 176.991 374.625 180.402 373.782 184.396 C 373.388 186.247 372.041 187.751 370.237 188.342 C 353.892 193.628 337.185 197.748 320.257 200.686 C 319.957 200.741 319.65 200.764 319.343 200.764" style=""/>
        <path d="M 77.245 -24.461 L 165.012 -4.256 C 165.012 168.334 77.237 171.067 77.237 171.067 L 77.237 -24.469" style="fill: rgb(221, 69, 40);"/>
        <path fill="#344154" d="M -5.183 -0.049 C -4.458 83.749 17.795 124.379 36.519 143.757 C 55.693 163.6 76.985 165.601 77.245 165.75 C 76.743 165.435 158.309 156.944 159.664 -0.049 L 77.237 -19.01 L -5.183 -0.049 Z M 77.402 176.369 C 77.351 176.404 -15.864 171.453 -15.864 -4.256 L -15.864 -8.478 L 77.245 -29.904 L 78.442 -29.628 L 170.345 -8.478 L 170.345 -4.256 C 170.345 171.453 77.385 176.455 77.402 176.369 Z" style=""/>
        <path fill="#344154" d="M 136.032 -21.207 C 135.631 -21.207 135.229 -21.255 134.827 -21.341 C 134.827 -21.341 96.941 -34.598 77.245 -34.599 C 57.543 -34.6 19.646 -21.341 19.646 -21.341 C 15.676 -20.42 12.187 -24.138 13.376 -28.045 C 13.928 -29.857 15.401 -31.235 17.244 -31.668 C 17.244 -31.668 56.716 -45.484 77.237 -45.485 C 97.758 -45.486 137.23 -31.676 137.23 -31.676 C 141.223 -30.857 142.83 -26.02 140.121 -22.972 C 139.089 -21.814 137.592 -21.16 136.032 -21.2" style=""/>
      </g>
    </g>
  </g>
</svg>