<?xml version="1.0" encoding="utf-8"?>
<svg viewBox="0 0 500 500" xmlns="http://www.w3.org/2000/svg">
  <defs>
    <path id="a" d="M0 .525h27.287v27.512H0z"/>
    <path id="c" d="M.483.257h12.095v12.205H.483z"/>
  </defs>
  <g transform="matrix(1, 0, 0, 1, 352.040385, 365.771495)">
    <g transform="matrix(1, 0, 0, 1, -474.735626, -42.009399)">
      <g fill="none" fill-rule="evenodd" transform="matrix(1, 0, 0, 1, 499.964783, 221.300522)"/>
    </g>
  </g>
  <g fill="none" fill-rule="evenodd" transform="matrix(1, 0, 0, 1, 417.435498, 429.608991)">
    <path d="M 41.215 27.281 C 57.712 10.587 57.712 -16.275 41.215 -32.978 L -221.664 -298.092 C -213.595 -327.301 -220.893 -359.927 -243.677 -382.892 C -264.389 -403.843 -294.42 -412.657 -323.166 -406.224 L -309.761 -392.699 L -271.97 -354.582 L -285.803 -302.52 L 41.215 27.281 Z" style="fill: rgb(221, 69, 40);"/>
    <path fill="#344154" d="M -380.436 35.333 C -382.26 35.341 -384.016 34.613 -385.301 33.311 C -387.982 30.596 -387.982 26.219 -385.301 23.504 L -289.649 -72.945 C -286.977 -75.652 -282.608 -75.652 -279.936 -72.945 C -277.255 -70.23 -277.255 -65.87 -279.936 -63.154 L -375.579 33.311 C -376.864 34.605 -378.611 35.333 -380.436 35.333" style=""/>
    <g transform="matrix(8.56561, 0, 0, 8.56561, -398.569409, -193.4802)" style="">
      <mask id="b" fill="#fff">
        <path d="M0 .525h27.287v27.512H0z"/>
      </mask>
      <path fill="#344154" d="M5.294 28.037a5.202 5.202 0 0 1-3.744-1.56A5.326 5.326 0 0 1 0 22.696a5.306 5.306 0 0 1 1.555-3.764L19.573.763a.797.797 0 0 1 1.134 0 .813.813 0 0 1 0 1.143L2.687 20.079a3.695 3.695 0 0 0-1.083 2.62 3.716 3.716 0 0 0 1.083 2.636 3.62 3.62 0 0 0 2.607 1.084c.987 0 1.913-.385 2.606-1.084L25.918 7.163a.797.797 0 0 1 1.134 0 .813.813 0 0 1 0 1.143L9.034 26.48a5.23 5.23 0 0 1-3.74 1.558" mask="url(#b)"/>
    </g>
    <path fill="#344154" d="M -125.849 -194.491 C -127.673 -194.482 -129.429 -195.21 -130.714 -196.512 C -133.395 -199.228 -133.395 -203.605 -130.714 -206.32 L -16.817 -321.176 L -33.777 -338.316 L -147.648 -223.468 C -150.321 -220.762 -154.689 -220.762 -157.362 -223.468 C -160.051 -226.184 -160.051 -230.552 -157.362 -233.267 L -38.625 -353.006 C -35.944 -355.704 -31.584 -355.704 -28.903 -353.006 L -2.247 -326.05 C 0.425 -323.335 0.425 -318.975 -2.256 -316.26 L -120.992 -196.512 C -122.277 -195.21 -124.024 -194.482 -125.849 -194.482" style=""/>
    <g transform="matrix(8.56561, 0, 0, 8.56561, -45.940347, -419.792218)" style="">
      <mask id="d" fill="#fff">
        <path d="M.483.257h12.095v12.205H.483z"/>
      </mask>
      <path fill="#344154" d="m2.36 8.17 2.368 2.397 3.148-1.251 2.664-4.284-2.698-2.72-4.247 2.686L2.36 8.171Zm1.977 4.292L.483 8.564l1.813-4.653L8.073.256 12.578 4.8l-3.624 5.826-4.617 1.836Z" mask="url(#d)"/>
    </g>
    <path d="M -279.387 -245.593 L -13.682 22.39 C -7.087 29.097 1.924 32.857 11.329 32.84 C 20.734 32.857 29.754 29.097 36.358 22.39 C 43.022 15.692 46.757 6.612 46.723 -2.844 C 46.723 -12.378 43.039 -21.346 36.358 -28.078 L -229.347 -296.045 L -228.276 -299.942 C -220.61 -327.746 -228.362 -357.649 -248.526 -377.983 C -264.278 -393.958 -286.12 -402.43 -308.528 -401.248 L -264.312 -356.647 L -280.201 -296.859 L -339.475 -280.841 L -383.699 -325.442 C -384.907 -302.914 -376.53 -280.927 -360.641 -264.917 C -340.46 -244.574 -310.849 -236.762 -283.259 -244.497 L -279.387 -245.585 L -279.387 -245.593 Z M 11.329 46.691 C -1.725 46.717 -14.239 41.492 -23.396 32.189 L -283.507 -230.15 C -314.832 -222.835 -347.707 -232.3 -370.354 -255.135 C -392.882 -277.851 -402.218 -310.212 -395.34 -341.7 L -392.642 -354.06 L -335.372 -296.302 L -291.414 -308.182 L -279.636 -352.518 L -336.897 -410.267 L -324.648 -412.991 C -293.409 -419.929 -261.331 -410.507 -238.804 -387.8 C -216.105 -364.895 -206.794 -331.669 -214.032 -300.208 L 46.072 -37.877 C 55.331 -28.575 60.505 -15.967 60.462 -2.844 C 60.505 10.278 55.331 22.887 46.072 32.189 C 36.915 41.492 24.392 46.717 11.338 46.691 L 11.329 46.691 Z" fill="#344154" style=""/>
    <path fill="#344154" d="M 41.215 34.211 C 39.39 34.211 37.643 33.483 36.358 32.189 L -38.42 -43.231 C -41.101 -45.946 -41.101 -50.306 -38.42 -53.021 C -35.747 -55.728 -31.379 -55.728 -28.706 -53.021 L 46.072 22.382 C 48.753 25.097 48.753 29.474 46.072 32.189 C 44.787 33.483 43.039 34.211 41.215 34.211" style=""/>
  </g>
</svg>