<?xml version="1.0" encoding="utf-8"?>
<svg viewBox="0 0 500 500" xmlns="http://www.w3.org/2000/svg">
  <defs>
    <path id="a" d="M0 .525h27.287v27.512H0z"/>
    <path id="c" d="M.483.257h12.095v12.205H.483z"/>
    <path id="path-1" d="M0 .669h54.961v52.086H0z"/>
  </defs>
  <g fill="none" fill-rule="evenodd" transform="matrix(8.081094, 0, 0, 8.081094, 28.520769, 30.317381)" style="">
    <g transform="translate(0 2.245)">
      <mask id="b" fill="#fff">
        <path d="M0 .669h54.961v52.086H0z"/>
      </mask>
      <path fill="#404040" d="m52.02 40.026-9.94 9.825v-7.285c0-1.403 1.153-2.54 2.576-2.54h7.364Zm-50.302 8.48v-33.15h51.527v22.961h-8.59c-2.366 0-4.292 1.907-4.292 4.25v8.481H4.294c-1.422 0-2.576-1.137-2.576-2.542ZM4.294 2.377H50.67c1.42 0 2.576 1.136 2.576 2.54v8.73H1.718v-8.73c0-1.404 1.154-2.54 2.576-2.54ZM50.67.67H4.294C1.927.669 0 2.574 0 4.917v43.59c0 2.343 1.927 4.248 4.294 4.248h36.927a.867.867 0 0 0 .606-.252L54.71 39.782a.863.863 0 0 0 .253-.608V4.917c0-2.343-1.93-4.248-4.294-4.248Z" mask="url(#b)"/>
    </g>
    <path fill="#404040" d="M43.776 10.099a2.247 2.247 0 0 1-2.244 2.248 2.248 2.248 0 0 1-2.246-2.248 2.245 2.245 0 0 1 4.49 0M30.306 10.099a2.248 2.248 0 0 1-2.244 2.248 2.246 2.246 0 1 1 2.244-2.248M15.714 10.099a2.247 2.247 0 0 1-2.244 2.248 2.248 2.248 0 0 1-2.246-2.248 2.245 2.245 0 0 1 4.49 0"/>
    <path fill="#404040" d="M13.341 11.224c-.547 0-.994-.377-.994-.848V.849c0-.471.447-.849.994-.849.548 0 .997.378.997.849v9.527c0 .471-.449.848-.997.848M27.936 11.224c-.548 0-.997-.377-.997-.848V.849c0-.471.449-.849.997-.849.547 0 .994.378.994.849v9.527c0 .471-.447.848-.994.848M41.403 11.224c-.548 0-.995-.377-.995-.848V.849c0-.471.447-.849.995-.849.547 0 .996.378.996.849v9.527c0 .471-.449.848-.996.848M44.795 25.205c-.898 0-1.634.729-1.634 1.634v2.448c0 .898.736 1.632 1.634 1.632h2.455c.898 0 1.628-.734 1.628-1.632V26.84a1.63 1.63 0 0 0-1.628-1.634h-2.455Zm2.455 7.346h-2.455a3.27 3.27 0 0 1-3.264-3.264V26.84a3.268 3.268 0 0 1 3.264-3.268h2.455a3.267 3.267 0 0 1 3.26 3.268v2.448a3.27 3.27 0 0 1-3.26 3.264ZM32.45 25.205c-.904 0-1.635.729-1.635 1.634v2.448c0 .898.73 1.632 1.634 1.632h2.449c.898 0 1.633-.734 1.633-1.632V26.84c0-.905-.735-1.634-1.633-1.634h-2.449Zm2.448 7.346h-2.449a3.272 3.272 0 0 1-3.265-3.264V26.84a3.269 3.269 0 0 1 3.265-3.268h2.449a3.268 3.268 0 0 1 3.265 3.268v2.448a3.27 3.27 0 0 1-3.265 3.264ZM20.103 25.205c-.898 0-1.634.729-1.634 1.634v2.448c0 .898.736 1.632 1.634 1.632h2.449c.902 0 1.634-.734 1.634-1.632V26.84c0-.905-.732-1.634-1.634-1.634h-2.45Zm2.449 7.346h-2.45a3.272 3.272 0 0 1-3.265-3.264V26.84a3.27 3.27 0 0 1 3.266-3.268h2.449a3.268 3.268 0 0 1 3.264 3.268v2.448a3.27 3.27 0 0 1-3.264 3.264ZM7.756 25.205c-.898 0-1.634.729-1.634 1.634v2.448c0 .898.736 1.632 1.634 1.632h2.45c.903 0 1.633-.734 1.633-1.632V26.84c0-.905-.73-1.634-1.634-1.634h-2.45Zm2.45 7.346h-2.45a3.272 3.272 0 0 1-3.266-3.264V26.84a3.27 3.27 0 0 1 3.266-3.268h2.45a3.268 3.268 0 0 1 3.263 3.268v2.448a3.27 3.27 0 0 1-3.264 3.264ZM32.45 38.674c-.904 0-1.635.729-1.635 1.634v2.449c0 .898.73 1.632 1.634 1.632h2.449c.898 0 1.633-.734 1.633-1.632v-2.449c0-.905-.735-1.634-1.633-1.634h-2.449Zm2.448 7.346h-2.449a3.272 3.272 0 0 1-3.265-3.263v-2.449a3.269 3.269 0 0 1 3.265-3.267h2.449a3.268 3.268 0 0 1 3.265 3.267v2.449a3.27 3.27 0 0 1-3.265 3.263Z"/>
    <path d="M7.755 38.674c-.901 0-1.633.729-1.633 1.634v2.449c0 .898.732 1.632 1.633 1.632h2.449c.898 0 1.634-.734 1.634-1.632v-2.449c0-.905-.736-1.634-1.634-1.634H7.755Zm2.449 7.346H7.755a3.272 3.272 0 0 1-3.265-3.263v-2.449a3.269 3.269 0 0 1 3.265-3.267h2.449a3.268 3.268 0 0 1 3.265 3.267v2.449a3.27 3.27 0 0 1-3.265 3.263ZM21.295 46.02a1.37 1.37 0 0 1-1.087-.526l-3.114-4.08c-.438-.57-.303-1.37.301-1.784a1.39 1.39 0 0 1 1.878.28l1.95 2.558 5.482-8.201c.398-.597 1.226-.772 1.854-.394.628.378.812 1.166.416 1.763l-6.545 9.793c-.24.357-.649.574-1.09.591h-.045Z" style="fill: rgb(221, 69, 40);"/>
  </g>
</svg>